<?xml version="1.0" encoding="utf-8" ?><svg xmlns="http://www.w3.org/2000/svg" xmlns:xlink="http://www.w3.org/1999/xlink" width="628" height="958" viewBox="0 0 628 958"><path fill="#090A09" d="M514.075 661.628C515.401 661.502 515.862 661.341 517.054 661.817C515.767 664.418 512.216 669.187 510.426 671.773C507.001 676.762 503.61 681.775 500.254 686.811L463.432 742.284L317.545 957.224C309.707 947.832 301.789 935.84 294.636 925.706L258.658 874.734C238.032 845.38 217.585 815.899 197.319 786.294C186.908 771.176 175.506 755.672 165.654 740.232C162.659 735.907 159.988 731.366 157.665 726.646C161.762 727.582 171.047 729.22 173.419 732.116C179.758 739.852 186.043 750.073 191.532 758.417C199.539 770.434 207.636 782.391 215.823 794.287C248.9 843.042 282.566 891.394 316.815 939.332C325.911 924.244 337.636 908.045 347.692 893.363L396.269 822.007L456.168 733.324C472.026 709.509 487.157 685.968 503.514 662.443L514.075 661.628Z"/><path fill="#090A09" d="M323.231 0.823241C327.672 5.90316 337.206 22.2426 341.378 28.7889L383.153 94.8758L455.88 212.236L477.456 246.908C482.717 255.241 489.222 264.928 493.637 273.584C489.831 274.341 486.483 274.867 482.639 275.406C479.023 270.632 474.95 263.725 471.777 258.582L457.04 234.811L406.825 153.684L358.641 76.8482C347.093 58.5077 335.107 38.6993 322.817 20.9551C313.541 36.7124 302.941 52.5566 293.282 68.1797C277.125 94.3113 260.861 119.958 243.444 145.28L238.984 135.327C259.155 100.775 281.233 67.0957 302.199 33.0218C308.842 22.226 315.447 10.8168 323.231 0.823241Z"/><path fill="#090A09" d="M54.4727 419.502L65.2368 422.743C61.8899 427.895 57.8319 433.24 54.3342 438.523L13.3805 500.722C17.0768 507.406 22.0509 513.743 26.2701 520.109C33.3495 530.16 40.0302 541.118 47.6742 550.758C58.8759 564.884 67.7767 577.932 77.1581 593.281L95.5874 623.198L106.694 641.308C108.301 643.907 112.284 650.11 113.363 652.616L112.725 653.012C110.05 653.115 107.16 653.012 104.467 652.969C99.7099 648.002 89.993 632.983 85.8707 626.785L55.6472 581.294C37.6825 554.325 18.4877 528.631 0.667958 501.62C5.44931 492.958 13.1594 481.737 18.6834 473.328L54.4727 419.502Z"/><path fill="#090A09" d="M129.209 301.414L142.913 301.577C128.784 318.997 118.881 341.641 105.442 358.996L104.922 359.55C102.557 360.327 95.8299 357.734 93.1511 356.89C97.1755 350.438 101.759 344.814 106.177 338.642C114.873 326.495 122.554 314.841 129.209 301.414Z"/><path fill="#090A09" d="M565.43 418.07C571.068 418.505 573.719 418.738 579.201 420.65C583.579 426.004 590.983 438.173 594.856 444.355L617.377 480.212C619.099 482.96 626.347 494.917 628 496.441L628 496.822C623.873 497.028 620.644 497.209 616.523 496.981C610.807 490.911 600.899 474.296 596.25 466.843C586.108 450.503 575.834 434.245 565.43 418.07Z"/></svg>