<?xml version="1.0" encoding="utf-8" ?><svg xmlns="http://www.w3.org/2000/svg" xmlns:xlink="http://www.w3.org/1999/xlink" width="501" height="485" viewBox="0 0 501 485"><path d="M280.594 40.5403L281.006 40.5239C282.453 41.174 289.054 51.8809 290.432 53.9748C303.918 74.373 318.075 94.3927 332.364 114.235C336.688 120.241 337.907 121.574 340.96 128.64C342.779 132.849 346.241 139.487 348.647 143.364C357.214 157.171 367.855 170.125 377.235 183.446C378.771 185.615 384.455 192.194 386.476 193.328C391.091 195.496 396.926 197.194 401.893 198.447C409.201 200.29 409.272 202.893 413.145 208.835C421.311 221.364 430.527 233.304 439.598 245.197C442.304 248.744 445.355 252.339 447.926 255.942C447.038 257.855 442.199 264.071 440.662 266.125C433.002 255.682 425.006 245.727 417.429 235.299L406.554 220.19C403.732 216.299 400.746 212.085 397.424 208.623C395.194 207.96 391.125 206.988 388.859 206.608L388.693 207.08C389.001 209.335 390.151 212.613 390.865 214.91C395.894 231.082 402.607 246.949 409.609 262.362C411.273 266.027 414.579 269.813 416.548 273.395C418.03 276.091 419.117 278.839 420.496 281.556C405.471 269.543 394.39 252.619 385.02 235.975C384.193 234.507 383.079 232.763 382.585 231.189C383.497 231.538 395.01 246.891 396.932 249.003C395.196 244.394 391.471 238.647 389.433 233.353C385.809 223.939 382.388 213.231 378.131 204.229C374.925 197.451 367.354 188.55 362.708 182.384C359.974 178.755 356.802 174.371 354.028 170.876C357.719 179.905 360.957 190.12 363.691 199.518C364.707 203.01 365.225 206.845 366.158 210.442C363.375 207.011 361.494 203.115 359.232 199.379C346.702 178.685 341.848 154.462 329.808 133.523C323.474 122.506 316.003 112.185 308.632 101.856L294.443 81.6144C290.86 76.5665 285.016 68.8381 282.025 63.7863C282.128 68.7682 282.763 79.4416 282.21 84.0021C280.504 98.0455 275.749 113.059 271.323 126.439L262.061 154.517C268.958 164.629 276.345 172.046 283.617 181.631C294.486 195.956 302.412 214.361 309.085 230.984C310.391 234.236 312.084 240.114 313.248 243.626C309.789 238.785 306.17 232.42 303.09 227.253C297.797 218.332 292.46 209.437 287.077 200.57C285.305 197.696 280.059 188.983 277.889 186.776C279.302 191.236 281.029 195.769 282.482 200.271C285.466 209.509 288.315 218.781 291.798 227.844C290.935 226.801 290.209 225.693 289.459 224.566C283.658 215.689 277.223 206.231 273.528 196.234C270.531 188.125 267.993 182.149 263.416 174.878C260.544 179.7 255.094 186.168 253.323 191.44C250.079 201.093 250.214 212.884 248.343 223.01C246.372 233.677 243.188 244.124 241.882 254.825C247.826 266.468 258.587 271.532 267.398 281.291C281.072 296.439 293.724 312.452 305.747 328.935C310.527 335.487 317.495 343.926 321.095 350.92C319.335 350.007 316.641 348.638 315.194 347.264C304.716 337.312 294.767 325.957 285.187 315.187C277.105 306.101 268.73 297.546 260.422 288.759C260.683 290.845 260.876 293.001 260.971 295.077C262.005 317.571 269.388 340.214 284.569 357.193C288.005 361.036 292.652 365.531 295.446 370.002L295.617 370.278L248.286 416.951C241.012 424.175 233.614 431.273 226.095 438.241C224.093 440.08 218.945 444.901 216.765 446.001C215.706 445.975 216.503 446.075 215.784 445.728C215.342 445.515 214.761 444.407 214.87 444.046C216.048 440.113 224.962 432.397 227.721 429.404C235.66 420.793 243.391 412.722 251.688 404.659C262.245 394.399 272.795 384.55 283.336 374.303C284.221 373.443 286.531 371.261 286.535 370.05C286.226 369.201 286.137 369.226 285.42 368.703C285.225 368.694 285.03 368.684 284.836 368.675C283.314 369.809 279.086 374.19 277.998 375.258C268.676 384.403 259.069 393.204 249.993 402.566C241.415 411.579 232.734 420.493 223.951 429.307C221.383 431.853 213.313 440.63 210.056 441.434C203.593 442.785 207.656 437.686 209.638 435.674C226.344 418.714 243.223 401.89 259.95 384.947C265.939 378.88 274.596 371.884 279.677 365.243C279.199 364.558 278.467 363.791 277.899 363.156C271.885 367.024 263.693 376.043 258.515 381.285C245.032 394.979 231.373 408.5 217.543 421.845C211.522 427.697 205.568 434.423 198.756 439.319C197.816 439.994 197.008 440.222 195.889 440.017C193.372 437.887 202.473 429.588 204.369 427.608C209.966 421.813 215.635 416.089 221.376 410.438L244.13 387.748C248.342 383.483 252.77 378.939 256.892 374.605C260.907 370.384 269.374 363.515 272.458 359.263C272.635 358.009 271.717 357.444 270.609 357.241C268.29 357.751 258.079 369.785 255.557 372.494C237.991 391.247 219.952 409.552 201.458 427.391C197.998 430.782 194.594 434.46 190.946 437.636C190.251 438.46 186.475 439.713 186.077 438.137C185.205 434.686 193.564 427.858 195.5 425.989C199.486 422.117 203.422 418.192 207.306 414.217C223.569 397.56 240.201 381.243 255.517 363.701C256.581 362.481 258 361.317 259.01 360.137C260.329 358.595 267.649 352.679 265.795 350.487C262.036 350.823 221.377 395.624 215.601 401.532C210.51 406.706 205.388 411.849 200.235 416.96C194.643 422.501 188.935 428.142 182.63 432.871C180.575 434.413 178.294 436.888 175.989 434.493C175.835 433.537 176.507 432.681 177.166 431.997C197.996 410.38 219.725 389.613 240.482 367.918C244.782 363.424 248.453 358.718 252.507 354.045C255.797 350.253 260.046 347.434 263.009 343.247C262.567 341.765 262.402 341.477 261.658 340.177C257.788 344.36 253.423 348.311 249.47 352.542C228.108 375.409 207.237 398.924 183.571 419.473C179.686 422.847 167.741 436.471 162.704 431.986C162.737 430.677 163.684 429.82 164.657 428.92C173.852 420.417 183.763 412.499 192.826 403.882C197.62 399.323 202.493 394.247 207.155 389.508C220.105 376.292 232.774 362.806 245.156 349.058C247.291 346.702 259.17 335.106 257.868 332.145C257.025 332.316 231.686 358.842 229.383 361.161C214.429 376.097 199.336 390.892 184.104 405.545C179.164 410.318 160.19 429.956 154.527 431.129C153.894 431.26 153.648 431.165 153.108 430.842C151.792 428.29 155.407 425.414 157.284 423.669C180.062 402.588 202.32 380.951 224.037 358.78C229.368 353.361 234.511 347.756 239.81 342.305C242.481 339.557 254.983 327.779 255.394 325.285C255.5 324.641 255.348 324.351 255.017 323.817C254.341 323.685 254.034 324.037 253.515 324.533C245.452 332.23 237.636 340.301 229.621 348.034L165.56 409.921C160.31 414.933 153.063 422.231 147.236 426.925C146.582 427.28 145.244 427.36 144.606 427.056C143.123 426.352 143.329 425.114 143.95 423.862C147.956 419.033 157.208 410.392 161.923 405.822C173.694 394.305 185.665 382.995 197.832 371.898C202.529 367.569 207.006 363.013 211.603 358.58C216.821 353.547 222.153 348.616 227.259 343.469C230.77 339.929 234.11 336.218 237.636 332.697C240.487 329.851 252.033 319.225 252.903 315.901C253.138 315.002 253.034 314.262 252.542 313.475C251.869 313.279 251.348 313.327 250.767 313.873C244.864 319.411 239.278 325.969 233.346 331.409C225.821 338.311 218.219 344.929 210.856 352.011C190.652 371.76 170.988 392.054 151.886 412.872C148.388 416.757 141.489 424.688 136.94 426.837L136.615 426.989C135.211 426.16 134.266 425.833 133.78 424.294C133.921 421.42 139.346 417.511 141.413 415.257C161.887 392.927 183.134 371.083 202.565 347.836C207.253 342.228 214.766 334.236 218.232 328.215C216.218 329.731 213.22 333.056 211.385 334.987C207.184 339.407 203.885 342.399 198.869 345.832C203.51 337.119 211.207 329.623 217.707 322.122L240.414 295.71C242.077 293.792 250.71 285.506 249.463 283.021C248.43 282.816 246.867 283.951 246.126 284.647C239.933 290.462 234.014 296.649 228.17 302.796C220.21 311.099 212.181 319.335 204.084 327.505C198.738 332.882 191.572 340.125 185.335 344.113C187.871 339.097 195.254 330.534 198.992 326.063C209.381 313.769 220.034 301.701 230.944 289.866C233.412 287.227 235.902 284.607 238.412 282.007C239.971 280.408 242.565 278.026 243.736 276.255C243.178 275.135 242.631 274.428 241.91 273.418C239.757 275.382 237.298 278.522 235.152 280.752C230.026 286.008 224.845 291.209 219.61 296.355C212.593 303.217 205.484 309.984 198.284 316.654C193.535 321.046 188.779 325.177 184.149 329.735C174.942 338.8 166.637 349.628 155.342 356.194C157.485 352.341 158.682 350.356 161.543 346.916C164.68 343.146 170.078 338.195 172.453 334.159C164.56 340.876 157.807 348.857 149.839 355.483C148.704 356.427 146.943 357.886 145.426 357.589L145.27 357.221C147.384 351.285 173.956 326.69 179.578 320.847C191.269 308.541 202.775 296.06 214.093 283.409C218.93 278.036 228.98 267.182 232.964 261.443C232.555 260.057 232.203 258.492 231.854 257.074C229.935 259.318 226.099 262.784 223.9 265.039C216.801 272.317 209.271 279.238 202.028 286.361C197.13 291.231 192.299 296.169 187.538 301.172C182.714 306.192 177.976 311.602 172.108 315.372C174.397 312.003 176.446 308.729 178.974 305.521C183.017 300.389 187.452 295.79 191.856 290.992C200.262 281.833 209.011 273.078 217.562 264.052L226.776 254.237C231.498 249.217 233.054 248.828 234.457 241.821C232.259 244.287 228.642 247.59 226.181 249.978L214.33 261.675C209.697 266.233 205.056 270.792 200.399 275.325C193.889 281.662 187.97 288.747 180.085 293.407C182.302 290.545 184.117 287.455 186.424 284.617C194.697 274.444 203.961 265.162 212.684 255.384C221.255 245.776 231.6 237.411 238.617 226.568C234.693 229.408 229.537 235.133 225.869 238.785C220.332 244.266 214.72 249.67 209.035 254.997C198.717 264.816 188.567 274.81 178.588 284.974C155.449 308.567 132.768 332.323 108.322 354.619C105.38 357.302 102.866 361.449 100.2 364.476C97.8338 367.163 95.2724 369.638 92.7376 372.167L73.3915 391.154C67.8764 396.588 59.4978 405.431 52.9398 410.388C52.1566 410.98 51.429 414.99 53.516 416.078C54.362 416.071 55.3313 415.727 55.8588 415.072C59.2623 410.847 62.6049 407.18 66.5108 403.386C84.4182 385.929 102.021 368.163 119.312 350.095C131.121 337.941 142.837 325.269 155.666 314.173C160.316 310.151 165.682 306.977 170.958 303.855L89.9821 387.024L77.0323 400.444C73.5552 404.11 63.1789 415.847 59.4208 417.699C56.8821 417.354 55.3114 417.786 52.8901 417.428C52.3984 417.356 51.981 416.725 51.7099 416.275C47.2714 408.896 42.5174 401.543 38.1724 394.12C35.0069 388.712 31.2697 383.338 28.245 377.968C29.7981 376.606 32.0692 374.153 33.5633 372.629C37.0115 369.151 40.4132 365.627 43.7676 362.059C52.3123 352.871 60.9075 343.731 69.5529 334.638C85.3463 318.23 102.152 302.749 116.911 285.332C118.432 283.537 119.074 280.404 119.541 278.161C114.306 281.828 106.76 289.528 102.306 294.153L90.3882 306.398C75.6199 321.431 61.0797 336.687 46.7725 352.16C40.7975 358.71 32.2437 367.684 27.2404 374.742L28.3136 378.266C27.4908 377.024 22.6525 369.235 22.6167 368.366C22.7847 368.3 23.3899 368.048 23.4917 367.958C34.2625 358.232 43.0358 346.343 53.2263 335.994C62.6403 326.436 71.6969 316.32 81.6164 307.29C94.1739 295.86 107.033 284.67 118.846 272.456C121.624 269.584 122.026 267.964 122.96 264.177C109.351 278.774 94.6208 289.987 80.0259 303.357C76.0177 307.028 71.1255 312.504 67.3656 316.519L53.0395 331.547C45.7834 339.138 38.611 346.809 31.5235 354.557C28.4611 357.904 25.3085 361.315 22.2793 364.703C21.9361 365.087 21.8566 365.563 21.7869 366.057L21.6653 366.891L21.6049 367.316C21.3254 367.054 17.8025 361.01 17.2394 360.142C19.6371 359.193 26.7277 351.412 28.9215 349.101C36.7876 340.945 44.439 332.585 51.8678 324.029C58.5239 316.294 64.7574 308.121 71.2733 300.267C74.0832 296.881 76.8379 293.745 79.0787 289.93L78.8837 290.057C76.1459 291.911 74.4331 293.903 72.0611 296.17C67.1255 300.887 62.606 305.934 57.9232 310.888C48.3751 320.885 39.0252 331.069 29.8788 341.435C25.6552 346.188 21.1847 351.256 17.2504 356.27C16.0666 357.778 16.995 357.901 16.5447 359.133C15.328 357.34 13.2884 353.586 11.8892 351.391C15.7676 349.362 21.4332 341.967 24.5778 338.358C29.5463 332.666 34.6191 327.066 39.7935 321.561C46.3383 314.52 53.2372 307.817 59.8223 300.813C62.9631 297.473 66.0664 294.1 69.2936 290.842C66.6329 290.591 63.963 290.448 61.2907 290.414C56.5985 294.776 52.2164 299.946 47.9357 304.741C41.9293 311.47 35.4661 318.364 29.7948 325.352C24.3628 332.044 14.6447 342.283 10.7051 349.552C9.16995 346.304 5.61107 341.395 3.67719 337.816C15.0465 324.157 26.559 310.617 38.2128 297.199L47.8667 285.873C49.8935 283.484 52.4547 280.342 54.6952 278.217C61.9584 277.765 71.3778 279.321 78.3214 277.341C80.2898 275.385 82.0686 272.995 83.9423 270.924C87.6081 266.87 91.0547 262.573 94.5811 258.417C107.16 243.592 121.375 231.138 131.471 214.273C134.932 213.393 143.05 213.754 144.888 212.147C150.697 207.07 156.674 199.448 161.82 193.637C166.229 188.728 170.759 183.807 175.392 179.111C191.572 162.711 201.018 141.095 214.664 122.738C229.292 103.06 245.153 84.1963 260.205 64.8353C265.411 58.1401 268.477 50.169 273.859 43.6696C275.272 41.9625 278.438 41.1776 280.594 40.5403ZM130.747 320.93C129.688 322.042 129.176 322.803 128.292 324.057C129.14 323.387 130.508 322.371 131.285 321.685C135.815 317.7 140.277 313.64 144.669 309.504C146.632 307.643 148.589 305.425 150.549 303.701C156.362 298.621 162.451 293.853 166.537 287.174C173.838 275.244 179.188 262.33 184.82 249.566C186.861 244.94 189.562 240.564 191.578 235.908C175.582 251.932 160.021 268.384 144.912 285.246C140.74 289.983 136.172 295.073 132.123 299.908C129.993 302.452 116.316 320.103 113.266 319.993L112.95 319.4C113.09 309.476 177.003 244.47 187.717 232.93C206.24 213.176 224.513 193.189 242.531 172.973C246.465 168.492 250.967 163.957 254.697 159.453C254.787 157.956 254.929 156.409 255.046 154.909C253.204 156.546 250.832 158.542 249.206 160.373C211.683 202.626 169.463 240.393 131.251 282.03C126.124 287.617 122.029 294.574 117.505 300.656C114.781 304.319 111.992 307.383 108.95 310.758C110.458 306.27 113.785 300.638 116.02 296.481C117.563 293.612 118.782 291.003 120.148 288.035C116.694 291.344 111.358 297.835 108.234 301.511C104.97 305.311 101.607 309.025 98.1485 312.649L49.3991 364.232C44.8808 369.047 40.1343 373.679 35.8133 378.665C34.1705 380.561 30.7383 383.118 34.1921 385.143C36.1617 385.187 43.4997 376.625 45.3596 374.873C60.5189 360.594 74.7233 345.341 90.2056 331.397C94.0774 327.91 98.4803 324.782 102.472 321.392C101.618 322.757 100.58 324.073 99.6006 325.352C82.2187 348.074 60.3995 367.179 40.4479 387.577C39.2405 388.811 37.4349 391.016 38.9113 392.583L39.5092 392.582C41.4534 391.182 45.8503 386.562 47.7663 384.734C54.296 378.504 60.531 371.652 67.0091 365.389C73.9698 358.66 81.0164 351.877 88.0497 345.231C93.3564 340.217 99.1993 335.565 104.38 330.372C100.732 338.133 86.38 352.214 80.2017 358.672L59.6488 380.572C54.8526 385.618 49.2432 390.635 45.2626 396.371C44.119 398.019 43.0495 399.796 44.7705 401.43C48.2071 402.215 58.422 390.991 61.1997 388.353C80.0474 370.457 99.5181 353.217 115.051 332.21C118.191 327.963 121.122 323.128 124.414 319.047C136.768 303.727 149.933 288.822 164.018 275.077C165.471 273.661 170.053 269.292 171.773 268.609L172.112 268.781C172.728 272.378 157.066 289.104 154.133 292.561C146.233 301.87 138.607 311.595 130.747 320.93ZM266.629 105.574C267.278 104.4 267.827 103.195 268.397 101.981C267.512 102.806 266.633 103.705 265.771 104.559C262.88 107.395 260.299 110.501 257.558 113.471C244.11 128.046 231.262 143.013 217.359 157.182C195.119 179.849 170.455 199.986 149.785 224.162C146.946 227.482 141.748 230.537 139.169 234.192C134.626 243.828 132.753 256.386 130.431 266.823C129.569 270.699 128.409 274.665 127.776 278.348C131.95 271.808 136.004 265.48 139.767 258.606C152.018 236.225 163.277 212.252 182.098 194.48C185.91 190.881 190.362 187.897 194.216 184.334C201.862 177.444 209.389 170.068 216.829 162.948C226.638 153.56 233.939 142.064 243.484 132.111C249.267 126.08 262.473 112.657 266.629 105.574ZM97.7762 273.545C102.566 270.248 125.132 246.837 126.276 241.993C126.133 241.356 126.302 241.569 125.915 241.181C118.956 248.705 112.243 256.942 105.361 264.61C103.992 266.135 98.2575 271.996 97.5518 273.019C97.6446 273.48 97.5305 273.328 97.7762 273.545ZM237.866 319.33C240.326 316.765 254.291 304.316 250.641 300.668C248.537 303.934 237.557 316.867 237.558 319.285L237.866 319.33ZM236.179 267.208C233.296 269.984 207.405 298.141 207.343 299.807L207.5 299.96C212.16 295.581 218.184 288.486 222.692 283.689C225.686 280.503 234.571 270.915 236.441 267.746C236.28 267.278 236.399 267.438 236.179 267.208ZM196.865 171.53C199.232 169.633 201.907 166.829 204.081 164.647C209.461 159.237 214.659 153.65 219.666 147.894L245.202 118.422C254.459 107.619 259.294 101.275 269.848 91.3799C270.11 89.5972 270.386 87.2524 270.225 85.4588L269.98 85.1866C265.922 90.3064 261.865 95.8743 257.431 100.644C238.256 121.265 217.932 141.158 201.565 164.176C200.596 165.538 196.863 170.197 196.708 171.368L196.865 171.53ZM71.8868 383.744C69.6172 385.372 54.7873 399.998 53.8029 401.901L53.972 402.216C56.0819 400.627 71.6084 385.435 72.0903 383.916L71.8868 383.744ZM262.614 120.949C257.775 126.672 252.21 131.679 247.066 137.071C235.363 149.337 223.249 161.381 211.098 173.162C195.99 187.81 180.355 201.709 168.948 219.601C168.258 220.683 165.725 223.946 165.786 225.081L165.998 225.305C172.052 219.357 178.474 213.602 184.455 207.606C201.491 190.404 218.197 172.878 234.564 155.038C241.336 147.794 259.38 130.098 262.866 121.524C262.728 121.019 262.854 121.186 262.614 120.949ZM270.918 71.1365C263.261 80.4054 255.902 89.9757 247.96 99.0459C244.943 102.492 242.306 106.676 239.376 110.225C237.41 112.816 232.671 118.472 231.469 121.027L231.572 121.403L231.901 121.332C239.204 113.475 246.384 104.077 253.261 95.7793C257.238 90.9809 270 77.1624 271.433 71.6092C271.136 71.1704 271.324 71.3083 270.918 71.1365ZM255.724 166.967C248.938 172.716 241.334 183.365 235.02 190.036C230.274 195.051 225.456 200.125 220.823 205.239C219.308 206.912 216.261 210.072 215.22 211.891L215.245 212.43C220.008 208.471 255.278 170.777 255.734 167.308C255.748 167.195 255.732 167.081 255.724 166.967ZM125.423 252.689C120.227 257.96 87.2681 287.369 86.8578 291.718L87.0871 292.029C89.1811 290.703 91.265 288.508 93.086 286.786C103.035 277.382 113.717 268.708 123.129 258.742C124.083 257.732 125.656 254.406 125.704 253.031L125.423 252.689ZM256.587 140.656C250.357 145.277 243.697 153.256 238.405 158.902C231.463 166.277 224.408 173.544 217.242 180.701C197.822 200.144 176.75 218.351 158.34 238.874C153.945 243.774 150.601 251.079 146.759 256.53C145.751 258.034 142.164 263.471 141.47 264.828L141.559 265.177L141.921 265.069C146.027 260.858 149.831 256.15 153.841 251.8C164.132 240.637 175.356 230.403 186.11 219.673C197.069 208.738 207.61 197.567 218.086 186.173C225.232 178.582 255.037 149.018 257.237 141.228L257.08 140.751L256.587 140.656ZM237.596 201.171C226.104 211.58 213.012 220.465 204.552 233.712C202.609 236.754 197.382 244.53 197.164 247.812L197.446 248.24C202.53 242.824 206.995 236.745 212.098 231.202C219.964 222.658 228.103 214.531 236.294 206.302C237.197 205.396 238.869 202.284 237.596 201.171ZM237.787 213.962L237.599 214.158C235.564 216.236 232.714 218.668 230.523 220.65C226.339 224.425 222.18 228.228 218.047 232.058C211.088 238.524 204.415 245.291 198.044 252.337C195.518 255.09 191.851 258.922 189.639 261.789C186.447 265.927 183.046 271.043 180.075 275.415L180.093 275.932L180.504 276.104C184.878 271.552 189.028 266.768 193.4 262.222C196.993 258.487 200.747 254.839 204.377 251.125L219.486 235.513C223.011 231.958 226.601 228.469 230.256 225.048C232.629 222.813 238.347 218.57 238.244 215.11C238.229 214.637 238.243 214.243 237.787 213.962Z"/><path d="M234.066 179.703C234.294 180.415 231.823 182.534 231.2 183.235C231.068 182.12 233.243 180.405 234.066 179.703Z"/><path d="M238.893 174.224C239.014 175.434 237.509 176.779 236.722 177.625L236.625 177.154L238.893 174.224Z"/><defs><linearGradient id="gradient_0" gradientUnits="userSpaceOnUse" x1="112.89325" y1="258.12296" x2="111.41319" y2="256.8541"><stop offset="0" stop-color="#F6F6F6" stop-opacity="0"/><stop offset="1" stop-color="#D6DACE" stop-opacity="0.0078431377"/></linearGradient></defs><path fill="url(#gradient_0)" d="M125.915 241.181C126.302 241.569 126.133 241.356 126.276 241.993C125.132 246.837 102.566 270.248 97.7762 273.545C97.5305 273.328 97.6446 273.48 97.5518 273.019C98.2575 271.996 103.992 266.135 105.361 264.61C112.243 256.942 118.956 248.705 125.915 241.181Z"/><path fill="#E2DFDE" fill-opacity="0.011764706" d="M71.8868 383.744L72.0903 383.916C71.6084 385.435 56.0819 400.627 53.972 402.216L53.8029 401.901C54.7873 399.998 69.6172 385.372 71.8868 383.744Z"/><path fill="#E2DFDE" fill-opacity="0.015686275" d="M265.771 104.559C266.633 103.705 267.512 102.806 268.397 101.981C267.827 103.195 267.278 104.4 266.629 105.574L265.771 104.559Z"/><path fill="#E2DFDE" fill-opacity="0.054901961" d="M128.292 324.057C129.176 322.803 129.688 322.042 130.747 320.93L131.285 321.685C130.508 322.371 129.14 323.387 128.292 324.057Z"/><path d="M311.945 171.912C313.361 172.672 321.069 184.313 322.67 186.624C334.272 203.021 347.303 218.686 360.123 234.146C372.309 248.841 383.36 263.654 393.497 279.847C395.4 282.888 397.142 286.716 398.88 289.943C390.609 281.821 382.592 273.4 375.36 264.336C373.264 261.708 370.713 258.313 368.329 256.041C370.506 262.035 372.629 268.047 374.7 274.078C376.044 277.935 377.21 281.591 378.898 285.314C368.565 275.075 365.107 256.279 356.457 243.466C356.129 242.832 354.098 240.164 353.548 239.444C351.259 236.446 349.306 234.042 347.383 230.776C347.879 236.949 348.087 244.783 348.167 250.955C348.296 260.96 350.25 265.019 354.923 273.814C359.782 282.959 365.176 291.892 370.344 300.901C374.566 308.262 377.681 316.004 380.991 323.818C380.179 323.052 375.397 316.876 374.186 315.492C370.354 311.111 364.798 305.126 361.339 300.66C355.713 293.396 339.315 269.063 338.549 260.659C337.761 252.008 340.11 234.301 337.439 224.973C335.795 219.231 330.997 211.741 328.335 206.205C324.515 198.262 320.582 190.491 317.051 182.435C315.523 178.951 313.299 175.188 311.945 171.912Z"/><path d="M169.379 317.738L169.585 317.883C168.906 323.541 135.757 354.726 130.177 360.445L85.3684 406.457C82.1638 409.707 78.9719 412.972 75.8116 416.267C74.3713 417.768 73.8753 418.705 71.7416 418.075C71.1157 417.151 70.6696 416.691 70.7064 415.623C71.4945 413.613 84.4431 400.94 87.1097 398.24L119.468 365.791L143.952 341.187C149.837 335.229 155.669 329.189 161.741 323.421C163.946 321.326 167.047 319.875 169.379 317.738Z"/><path d="M192.927 349.205L192.959 349.667C189.107 358.274 175.387 371.233 168.493 378.659C160.992 386.854 153.428 394.991 145.801 403.069C140.18 409.053 133.443 416.392 126.698 421.373C125.884 421.974 124.666 421.578 123.652 421.363C123.377 420.779 123.273 420.398 123.417 419.747C123.963 417.283 167.704 372.596 172.998 367.256C176.95 363.269 181.044 359.393 185.124 355.536C187.575 353.221 190.222 351.209 192.927 349.205Z"/><path d="M178.334 350.193C178.636 350.299 178.457 350.204 178.771 350.617C178.17 354.286 166.127 366.679 162.9 370.174C154.63 379.167 146.272 388.079 137.828 396.908L124.242 411.412C121.777 414.038 119.22 416.886 116.549 419.303C115.696 420.074 114.179 420.218 113.069 420.349C111.403 418.07 113.521 415.625 115.15 413.822C130.961 396.313 147.854 379.754 163.916 362.459C167.237 358.883 174.298 352.735 178.334 350.193Z"/><path d="M264.21 225.918C264.27 225.94 264.331 225.958 264.389 225.985C269.808 228.558 293.087 261.887 296.468 268.424C300.828 276.854 304.025 286.256 307.452 295.099C305.636 294.08 301.955 288.681 300.579 286.743C297.283 282.15 294.071 277.496 290.947 272.784C286.471 266.205 282.083 259.566 277.783 252.87C273.939 246.933 264.815 232.979 264.21 225.918Z"/><path d="M316.127 256.839C316.189 256.851 316.251 256.858 316.311 256.874C322.583 258.585 340.25 290.708 344.575 297.674C347.403 302.228 350.697 306.48 353.622 310.974C356.851 315.936 359.586 321.114 362.299 326.367C360.853 325.997 357.789 322.814 356.762 321.682C344.344 307.968 334.54 291.827 325.727 275.625C322.61 269.896 318.486 262.915 316.127 256.839Z"/><path d="M138.743 360.184C139.077 360.462 138.93 360.334 139.107 360.84C138.1 363.833 130.44 372.136 127.977 374.929C122.424 381.216 116.813 387.452 111.145 393.636C107.059 398.178 102.932 402.683 98.7652 407.15C95.1928 410.981 91.6544 415.865 86.2899 416.768C85.6549 415.946 85.3352 415.57 85.2747 414.57C85.5022 413.752 86.4699 412.505 87.0856 411.874C99.3761 399.285 110.799 385.876 123.335 373.535C128.189 368.757 133.521 364.534 138.743 360.184Z"/><path d="M150.384 364.496L150.595 364.75C149.177 370.998 116.072 404.776 109.648 411.074C107.853 412.833 105.03 415.788 103.086 417.614C101.864 418.762 101.078 418.519 99.5184 418.426C98.2176 417.09 99.3746 415.144 100.426 414.085C112.002 402.417 123.2 390.277 134.75 378.603C139.621 373.68 145.259 369.095 150.384 364.496Z"/><path d="M289.25 104.651C292.061 105.605 298.093 115.605 299.783 118.515C308.564 133.632 315.776 149.61 321.526 166.112C319.836 165.438 318.309 162.332 317.157 160.927C306.142 147.496 300.507 131.321 294.075 115.436C292.604 111.801 290.62 108.251 289.25 104.651Z"/><path d="M284.578 390.711L284.822 390.804L284.86 391.217C283.415 393.424 276.35 400.799 274.282 403.018C266.524 411 258.404 419.909 250.264 427.405C245.03 432.224 232.324 445.836 226.208 448.225C225.697 447.58 225.662 447.607 225.498 446.765C225.723 445.938 226.361 445.289 226.979 444.697C242.329 429.971 257.326 414.853 272.743 400.207C276.41 396.723 280.366 393.474 284.578 390.711Z"/><path d="M313.047 311.13C314.937 312.181 319.082 316.384 320.628 318.069C329.983 328.288 338.136 339.546 344.925 351.623C344.422 351.545 343.949 351.463 343.471 351.281C335.306 348.172 316.976 319.403 313.047 311.13Z"/><path d="M261.613 423.441C262.047 423.523 261.867 423.414 262.139 423.789C259.266 430.417 244.01 442.931 237.633 447.095L237.338 447.129L237.178 446.759C238.576 442.404 257.499 426.718 261.613 423.441Z"/><path d="M334.93 319.493C339.66 320.556 352.302 335.188 353.899 339.788C351.026 338.592 347.455 335.626 345.306 333.444C343.214 331.32 334.907 321.951 334.93 319.493Z"/><path d="M282.175 331.211C285.67 332.999 299.551 348.976 302.52 352.592C298.051 351.287 283.87 336.158 282.175 331.211Z"/><path d="M224.737 355.106L224.855 355.227C224.681 355.919 223.064 357.233 222.397 357.971L222.123 358.278L221.889 358.006C222.552 356.877 223.716 355.946 224.737 355.106Z"/><path d="M225.742 367.057L226.035 367.168C225.618 367.906 224.998 368.25 224.403 368.985L224.162 369.287L224.072 368.984C224.287 368.158 225.048 367.536 225.742 367.057Z"/><path d="M15.1114 345.393L15.3415 345.599C15.4121 346.372 15.0227 346.728 14.5785 347.561L14.2437 347.128C14.3148 346.286 14.5936 346.063 15.1114 345.393Z"/><path d="M201.996 263.543L202.254 263.798C202.161 264.446 201.825 264.502 201.161 265.068L201.029 265.029C201.014 264.394 201.432 264.188 201.996 263.543Z"/></svg>