<?xml version="1.0" standalone="no"?>
<!DOCTYPE svg PUBLIC "-//W3C//DTD SVG 20010904//EN"
 "http://www.w3.org/TR/2001/REC-SVG-20010904/DTD/svg10.dtd">
<svg version="1.0" xmlns="http://www.w3.org/2000/svg"
 width="542.000000pt" height="239.000000pt" viewBox="0 0 542.000000 239.000000"
 preserveAspectRatio="xMidYMid meet">

<g transform="translate(0.000000,239.000000) scale(0.100000,-0.100000)"
fill="#000000" stroke="none">
<path d="M2605 2336 c-267 -53 -465 -225 -557 -486 -12 -35 -22 -94 -25 -161
l-6 -106 -66 5 c-170 12 -345 -78 -441 -228 -38 -60 -70 -183 -70 -274 l0 -71
-88 -1 c-77 0 -97 -5 -153 -31 -37 -17 -97 -60 -143 -101 -44 -39 -94 -78
-113 -87 -30 -15 -189 -34 -426 -51 -88 -7 -93 -16 -31 -51 106 -60 330 -128
524 -160 179 -29 724 -17 745 17 8 13 -64 20 -315 30 -135 5 -301 16 -370 24
-125 15 -277 49 -293 65 -5 5 17 11 50 15 139 17 224 54 306 137 66 66 138 99
218 99 66 0 118 -28 165 -87 73 -93 140 -155 196 -184 160 -82 359 -75 503 16
108 68 156 153 163 285 5 112 -19 180 -88 249 -64 64 -125 85 -226 79 -59 -4
-83 -11 -121 -34 -138 -85 -151 -284 -23 -351 65 -34 114 -31 156 11 19 19 34
43 34 55 0 26 -5 26 -43 -1 -128 -91 -220 110 -94 206 114 87 286 2 318 -157
23 -114 -46 -234 -169 -294 -77 -38 -201 -44 -286 -14 -119 42 -211 122 -260
226 -109 230 18 513 257 571 64 16 73 16 145 1 43 -10 92 -17 110 -17 l33 0
-7 108 c-5 87 -3 119 11 167 50 176 189 348 337 419 182 87 386 85 547 -6 126
-71 239 -220 276 -363 53 -210 -53 -434 -252 -528 -61 -29 -77 -32 -158 -32
-78 0 -97 4 -141 27 -99 52 -148 130 -148 233 0 79 14 114 69 170 55 55 91 69
170 70 106 0 170 -46 182 -132 5 -36 1 -45 -32 -82 -42 -46 -38 -67 9 -55 39
9 84 59 92 100 17 91 -28 172 -121 219 -49 25 -71 29 -130 29 -288 -3 -429
-360 -219 -554 69 -63 142 -93 243 -98 155 -8 272 36 382 147 113 113 167 258
157 422 -4 68 -3 68 27 81 53 23 162 16 225 -13 79 -37 115 -71 151 -144 37
-75 47 -162 30 -247 -12 -55 -14 -58 -67 -85 -174 -88 -263 -224 -252 -382 11
-157 118 -273 264 -288 136 -14 254 93 254 231 0 44 -5 60 -26 86 -55 65 -141
81 -187 35 -21 -22 -42 -65 -31 -65 2 0 18 9 36 20 40 24 76 25 104 2 72 -57
52 -157 -38 -201 -121 -58 -255 12 -288 151 -54 224 223 430 471 351 79 -25
162 -110 185 -188 20 -71 15 -150 -15 -215 l-20 -45 23 -3 c13 -2 54 14 92 35
124 68 220 47 347 -76 86 -81 99 -89 185 -105 l67 -12 -81 -22 c-179 -49 -516
-71 -1060 -72 l-261 0 -12 58 c-30 139 -105 237 -229 295 -60 28 -77 32 -157
32 -70 -1 -103 -6 -147 -23 -67 -27 -137 -90 -169 -153 -27 -53 -37 -160 -19
-213 50 -151 264 -192 358 -68 35 46 37 117 6 159 -35 46 -48 37 -54 -39 -3
-37 -11 -73 -18 -80 -20 -20 -121 -16 -154 6 -96 63 -64 231 59 307 48 30 130
40 196 25 107 -25 178 -83 225 -185 21 -46 24 -64 20 -130 -6 -92 -29 -142
-101 -218 -107 -113 -251 -173 -437 -180 -63 -3 -130 -1 -149 4 l-33 9 47 24
c44 22 131 107 121 118 -3 2 -31 -12 -63 -31 -101 -62 -180 -83 -259 -71 l-45
6 60 36 c65 38 145 114 140 131 -2 6 -40 -10 -89 -39 -110 -64 -180 -91 -215
-82 -26 7 -25 8 47 73 40 37 84 85 97 109 l24 43 -39 -22 c-22 -12 -71 -48
-109 -78 -88 -71 -187 -117 -294 -137 -142 -27 -259 -15 -381 40 -54 24 -106
64 -84 64 100 2 383 23 424 31 87 17 180 47 219 71 43 27 121 97 121 109 0 5
-44 -13 -98 -40 -173 -87 -159 -85 -641 -87 -316 0 -426 -4 -429 -13 -6 -19
84 -52 181 -65 92 -12 92 -12 144 -64 94 -92 194 -131 364 -139 95 -5 135 -2
227 17 l112 22 94 -37 c52 -20 147 -49 211 -66 150 -37 334 -41 461 -9 156 39
303 134 390 251 l19 26 169 -10 c290 -18 500 16 622 99 l62 42 168 11 c262 17
394 46 589 126 120 49 182 85 164 95 -8 4 -81 10 -164 13 -221 9 -279 29 -367
131 -31 35 -69 65 -105 83 -51 24 -70 28 -154 28 l-96 0 -7 75 c-12 145 -79
236 -219 300 -58 26 -78 30 -153 30 -78 0 -85 2 -79 18 4 9 10 64 12 122 4 89
2 112 -15 151 -25 57 -118 159 -178 194 -66 39 -171 58 -274 50 l-85 -6 -40
78 c-51 101 -162 213 -260 265 -137 71 -313 100 -450 74z m1334 -1833 c200 -6
220 -8 196 -20 -53 -28 -163 -44 -350 -50 -105 -3 -212 -3 -238 1 -48 7 -48 8
-41 39 3 18 9 36 12 41 3 5 47 6 101 2 53 -3 197 -9 320 -13z"/>
<path d="M3432 1340 c-84 -30 -166 -95 -223 -177 -34 -48 -86 -76 -187 -99
-112 -25 -91 -38 49 -31 111 6 123 8 137 29 48 67 138 160 190 195 33 22 98
52 146 67 47 15 86 30 86 32 0 12 -152 0 -198 -16z"/>
</g>
</svg>
