<?xml version="1.0" standalone="no"?>
<!DOCTYPE svg PUBLIC "-//W3C//DTD SVG 20010904//EN"
 "http://www.w3.org/TR/2001/REC-SVG-20010904/DTD/svg10.dtd">
<svg version="1.0" xmlns="http://www.w3.org/2000/svg"
 width="422.000000pt" height="213.000000pt" viewBox="0 0 422.000000 213.000000"
 preserveAspectRatio="xMidYMid meet">

<g transform="translate(0.000000,213.000000) scale(0.100000,-0.100000)"
fill="#000000" stroke="none">
<path d="M1950 2003 c-65 -11 -162 -49 -227 -89 -155 -96 -254 -256 -278 -451
-7 -51 -8 -53 -38 -53 -18 0 -60 -7 -95 -15 -150 -36 -257 -117 -319 -243 -35
-70 -38 -83 -39 -166 l-2 -91 -79 -6 c-132 -10 -215 -63 -304 -194 -24 -36
-58 -72 -78 -83 -20 -11 -98 -32 -173 -46 -145 -28 -196 -45 -218 -70 -20 -25
1 -40 113 -79 263 -93 522 -137 852 -144 255 -6 356 3 488 43 160 48 168 49
403 35 121 -6 253 -14 294 -17 l75 -6 -30 -24 c-53 -42 -118 -72 -200 -90 -73
-17 -130 -19 -620 -19 -297 0 -585 3 -640 7 l-100 8 38 -21 c87 -46 178 -60
487 -75 303 -14 709 -7 844 16 147 24 245 73 302 149 l36 48 157 6 c160 5 223
18 306 59 22 11 49 28 60 38 17 15 48 18 220 23 199 6 266 16 295 43 12 12 12
16 2 23 -18 11 -1111 23 -1379 15 -206 -6 -267 -15 -247 -34 5 -5 101 -11 214
-15 361 -10 735 -26 750 -32 9 -4 -8 -12 -40 -21 -45 -12 -150 -16 -552 -19
-274 -2 -498 -2 -498 1 0 3 14 33 32 68 82 161 22 352 -132 420 -102 46 -240
32 -328 -32 -78 -56 -115 -184 -76 -266 47 -98 178 -132 256 -66 39 33 51 65
36 97 -15 34 -31 31 -62 -10 -37 -48 -75 -48 -123 0 -33 33 -35 39 -30 81 18
163 290 180 377 24 67 -120 3 -271 -140 -332 -180 -77 -569 -71 -1005 17 -163
33 -232 54 -214 66 8 5 35 9 60 9 63 0 168 34 201 65 15 13 41 46 59 72 97
145 186 188 320 157 35 -8 74 -12 86 -9 21 5 21 6 7 62 -7 32 -13 92 -14 133
0 63 5 85 29 135 60 124 194 205 340 205 l56 0 32 -69 c46 -98 109 -163 201
-208 73 -37 80 -38 181 -38 96 0 112 3 168 29 75 34 142 102 168 169 27 72 18
185 -21 240 -39 55 -119 97 -187 97 -82 0 -167 -63 -167 -125 0 -21 7 -19 65
15 79 47 148 35 201 -35 23 -30 28 -48 28 -89 -1 -128 -109 -220 -258 -218
-124 2 -231 76 -289 200 -26 56 -31 77 -30 141 2 276 243 498 518 478 141 -10
249 -61 342 -160 64 -68 86 -106 117 -199 65 -194 10 -402 -149 -561 -101
-102 -176 -143 -355 -195 -32 -9 -28 -10 40 -11 94 -1 181 28 277 92 182 121
286 298 300 512 l6 95 36 7 c57 12 153 7 194 -11 102 -44 169 -156 169 -280 0
-79 -20 -141 -70 -220 -18 -28 -32 -54 -32 -58 0 -17 33 -7 78 24 75 52 149
78 222 78 123 0 187 -31 264 -131 57 -73 143 -131 233 -155 64 -17 65 -18 37
-27 -16 -5 -301 -13 -634 -17 -675 -9 -761 -15 -692 -46 9 -4 292 -12 627 -18
683 -11 736 -8 930 54 99 31 185 73 185 89 0 5 -80 11 -177 14 -264 8 -337 39
-462 194 -53 65 -119 108 -201 129 -63 16 -151 15 -207 -2 -22 -6 -22 -4 -15
27 4 19 7 70 6 114 0 64 -5 91 -26 137 -35 76 -99 143 -173 181 -51 26 -74 31
-150 35 -50 2 -106 0 -126 -6 l-35 -9 -17 48 c-27 74 -109 189 -174 242 -134
110 -333 167 -493 140z"/>
<path d="M2799 1114 c-9 -11 -40 -55 -69 -99 -99 -148 -227 -251 -370 -296
-36 -11 -112 -26 -170 -33 l-105 -13 59 -8 c82 -11 210 0 279 24 144 50 285
178 358 326 42 84 51 137 18 99z"/>
</g>
</svg>
