<?xml version="1.0" standalone="no"?>
<!DOCTYPE svg PUBLIC "-//W3C//DTD SVG 20010904//EN"
 "http://www.w3.org/TR/2001/REC-SVG-20010904/DTD/svg10.dtd">
<svg version="1.0" xmlns="http://www.w3.org/2000/svg"
 width="277.000000pt" height="237.000000pt" viewBox="0 0 277.000000 237.000000"
 preserveAspectRatio="xMidYMid meet">

<g transform="translate(0.000000,237.000000) scale(0.100000,-0.100000)"
fill="#000000" stroke="none">
<path d="M1388 2174 c-194 -35 -356 -115 -487 -241 l-86 -82 61 -1 c55 0 63 3
90 31 44 47 180 132 264 167 117 48 223 65 359 60 144 -6 254 -34 377 -94 319
-158 523 -443 564 -789 31 -262 -57 -538 -244 -769 l-48 -59 42 24 c61 34 162
146 209 231 78 140 121 314 121 493 0 220 -56 403 -180 586 -225 330 -655 513
-1042 443z"/>
<path d="M560 800 c0 -25 64 -172 106 -245 68 -116 222 -267 331 -323 45 -24
101 -49 125 -58 39 -14 44 -13 55 3 22 29 15 38 -49 69 -82 38 -212 126 -266
177 -80 77 -178 235 -220 357 -9 26 -16 30 -46 30 -20 0 -36 -5 -36 -10z"/>
</g>
</svg>
