<?xml version="1.0" standalone="no"?>
<!DOCTYPE svg PUBLIC "-//W3C//DTD SVG 20010904//EN"
 "http://www.w3.org/TR/2001/REC-SVG-20010904/DTD/svg10.dtd">
<svg version="1.0" xmlns="http://www.w3.org/2000/svg"
 width="388.000000pt" height="121.000000pt" viewBox="0 0 388.000000 121.000000"
 preserveAspectRatio="xMidYMid meet">

<g transform="translate(0.000000,121.000000) scale(0.100000,-0.100000)"
fill="#000000" stroke="none">
<path d="M1250 975 c-120 -19 -218 -44 -265 -68 -39 -19 -39 -20 -17 -30 17
-8 58 -5 150 8 190 27 446 32 574 10 124 -20 281 -60 483 -122 197 -60 264
-77 420 -110 118 -24 149 -27 335 -26 153 0 225 5 285 18 160 34 142 39 -150
46 -339 8 -417 22 -770 129 -412 125 -593 161 -815 159 -80 -1 -183 -7 -230
-14z"/>
<path d="M2830 930 c0 -15 54 -39 127 -55 92 -21 401 -31 530 -16 110 12 194
38 171 52 -7 5 -148 9 -313 9 -165 0 -343 4 -395 10 -120 12 -120 12 -120 0z"/>
<path d="M1185 781 c-66 -11 -231 -44 -366 -75 -364 -82 -417 -90 -626 -90
-101 0 -183 -2 -183 -3 0 -1 18 -12 40 -23 121 -62 466 -40 870 54 218 51 281
60 450 60 187 1 323 -21 593 -95 492 -134 623 -154 997 -153 276 0 417 11 462
35 49 26 -1 34 -245 36 -507 5 -588 17 -1122 163 -316 87 -392 101 -590 106
-123 3 -187 -1 -280 -15z"/>
<path d="M1285 553 c-16 -2 -122 -24 -235 -48 -279 -60 -362 -74 -493 -80
-183 -10 -217 -20 -140 -46 68 -22 301 -6 563 40 474 84 441 86 1040 -67 229
-59 337 -78 516 -94 191 -17 434 6 434 40 0 4 -107 16 -237 26 -342 26 -415
40 -863 162 -189 52 -327 74 -449 73 -58 -1 -119 -4 -136 -6z"/>
</g>
</svg>
