<?xml version="1.0" standalone="no"?>
<!DOCTYPE svg PUBLIC "-//W3C//DTD SVG 20010904//EN"
 "http://www.w3.org/TR/2001/REC-SVG-20010904/DTD/svg10.dtd">
<svg version="1.0" xmlns="http://www.w3.org/2000/svg"
 width="390.000000pt" height="178.000000pt" viewBox="0 0 390.000000 178.000000"
 preserveAspectRatio="xMidYMid meet">

<g transform="translate(0.000000,178.000000) scale(0.100000,-0.100000)"
fill="#000000" stroke="none">
<path d="M1412 1579 c-78 -12 -164 -43 -187 -69 -18 -20 -17 -20 21 -20 21 0
75 7 119 15 194 35 469 8 869 -86 464 -108 638 -138 853 -146 189 -7 303 6
438 48 81 26 169 78 155 92 -3 3 -39 -6 -80 -19 -133 -42 -273 -57 -475 -51
-214 7 -322 24 -713 111 -572 128 -788 155 -1000 125z"/>
<path d="M1358 1410 c-180 -31 -327 -112 -401 -223 -54 -80 -71 -144 -65 -246
l5 -86 -276 0 c-321 0 -459 -17 -437 -54 5 -8 115 -11 370 -11 l363 0 46 -60
c26 -33 51 -60 57 -60 5 0 10 -4 10 -10 0 -7 -152 -10 -435 -10 -239 0 -435
-4 -435 -8 0 -5 6 -16 13 -25 17 -23 280 -35 817 -39 l425 -3 49 24 c102 51
164 142 173 255 13 156 -75 255 -225 256 -136 0 -234 -89 -202 -184 23 -71 68
-70 68 2 0 75 91 108 189 67 46 -19 73 -68 73 -133 0 -73 -28 -124 -87 -159
-44 -25 -57 -28 -143 -28 -82 0 -103 4 -150 27 -119 56 -165 132 -164 268 0
75 4 92 31 146 38 73 104 134 187 173 97 45 157 56 311 55 160 -1 264 -17 585
-94 523 -125 826 -157 962 -103 21 8 38 19 38 24 0 13 -33 17 -190 23 -207 7
-418 43 -749 126 -348 86 -641 119 -813 90z"/>
<path d="M385 999 c-90 -9 -149 -29 -153 -51 -4 -21 -11 -21 303 -8 218 9 265
15 265 31 0 28 -253 45 -415 28z"/>
<path d="M2051 800 c-160 -42 -241 -126 -241 -250 0 -75 36 -103 107 -84 21 6
21 6 3 46 -40 90 31 178 170 210 39 9 169 12 435 13 293 0 393 3 435 14 51 13
53 15 28 22 -15 4 -87 10 -160 14 -73 4 -215 13 -316 21 -249 19 -370 17 -461
-6z"/>
<path d="M2129 577 c-36 -24 -44 -44 -35 -83 8 -31 29 -31 46 1 25 47 91 45
141 -5 33 -33 38 -79 12 -102 -53 -46 -91 -48 -1028 -38 -405 4 -486 2 -583
-12 -113 -17 -132 -22 -132 -37 0 -4 188 -11 418 -14 229 -4 597 -12 818 -18
360 -10 407 -9 464 5 83 21 126 49 150 97 35 67 23 125 -37 181 -55 51 -176
64 -234 25z"/>
<path d="M1177 168 c-18 -13 -17 -15 8 -26 32 -15 309 -49 470 -58 124 -6 397
10 441 26 28 11 31 25 7 35 -10 5 -142 11 -293 16 -151 4 -351 11 -445 14
-139 6 -173 5 -188 -7z"/>
</g>
</svg>
