<?xml version="1.0" standalone="no"?>
<!DOCTYPE svg PUBLIC "-//W3C//DTD SVG 20010904//EN"
 "http://www.w3.org/TR/2001/REC-SVG-20010904/DTD/svg10.dtd">
<svg version="1.0" xmlns="http://www.w3.org/2000/svg"
 width="526.000000pt" height="178.000000pt" viewBox="0 0 526.000000 178.000000"
 preserveAspectRatio="xMidYMid meet">

<g transform="translate(0.000000,178.000000) scale(0.100000,-0.100000)"
fill="#000000" stroke="none">
<path d="M4094 1636 c-66 -22 -98 -42 -141 -89 -51 -55 -67 -109 -60 -200 8
-121 85 -197 200 -197 94 0 158 44 173 119 7 35 -18 86 -46 94 -18 5 -20 0
-20 -39 0 -63 -24 -84 -94 -84 -66 0 -109 31 -127 89 -24 82 45 185 143 211
57 16 144 7 195 -18 117 -60 157 -216 90 -348 -51 -100 -193 -202 -336 -240
-31 -8 -117 -18 -191 -21 -287 -12 -554 42 -1110 222 -663 216 -1019 275
-1574 262 -295 -7 -509 -33 -757 -91 -161 -38 -382 -130 -424 -176 l-20 -22
35 7 c19 4 64 18 100 32 85 32 281 79 455 109 517 89 1101 64 1635 -71 141
-35 305 -84 540 -160 335 -109 557 -167 750 -197 132 -20 457 -17 552 5 269
63 440 215 479 422 14 78 6 136 -31 212 -32 65 -86 120 -155 156 -50 26 -198
33 -261 13z"/>
<path d="M1061 1579 c-108 -8 -197 -25 -206 -39 -10 -16 33 -23 165 -27 744
-19 1001 -41 1345 -114 168 -35 223 -51 658 -185 432 -133 593 -168 777 -168
105 0 143 3 170 17 19 9 32 16 29 17 -29 1 -377 64 -424 76 -33 9 -220 62
-415 119 -695 203 -917 253 -1270 289 -172 17 -681 27 -829 15z"/>
<path d="M1129 1176 c-251 -32 -519 -113 -519 -156 0 -14 6 -13 112 15 235 62
557 89 793 66 322 -31 556 -86 1117 -260 533 -166 601 -184 858 -222 161 -24
462 -29 613 -10 393 50 731 219 892 446 49 70 79 125 71 132 -3 3 -50 -39
-103 -94 -269 -272 -640 -413 -1093 -413 -367 -1 -617 50 -1225 250 -419 137
-680 206 -885 235 -157 22 -496 28 -631 11z"/>
<path d="M4605 585 c-221 -85 -568 -128 -850 -105 -71 6 -166 13 -210 16 l-80
5 46 -20 c25 -10 94 -30 155 -43 95 -20 135 -23 319 -23 227 1 321 13 470 60
129 41 314 147 253 145 -7 -1 -53 -16 -103 -35z"/>
</g>
</svg>
